<svg xmlns="http://www.w3.org/2000/svg" viewBox="0 0 1600 900" role="img" aria-labelledby="title desc">
  <title id="title">Anatta Bamiyan memorial thumbnail</title>
  <desc id="desc">A darker restrained philosophical thumbnail about Bamiyan, Anatta, absence, and the doctrine of non-self.</desc>
  <defs>
    <filter id="shadow" x="-20%" y="-20%" width="140%" height="140%">
      <feDropShadow dx="0" dy="20" stdDeviation="18" flood-color="#000" flood-opacity="0.34"/>
    </filter>
  </defs>
  <rect width="1600" height="900" fill="#171612"/>
  <circle cx="1248" cy="252" r="270" fill="#a9683f" opacity="0.21"/>
  <circle cx="1130" cy="654" r="250" fill="#315f48" opacity="0.18"/>
  <g opacity="0.22" stroke="#fff8eb" stroke-width="1">
    <path d="M0 160H1600M0 330H1600M0 500H1600M0 670H1600"/>
    <path d="M220 0V900M480 0V900M740 0V900M1000 0V900M1260 0V900"/>
  </g>
  <g fill="#0f100d">
    <path d="M1056 700 C1056 508 1130 350 1230 350 C1330 350 1404 508 1404 700 Z"/>
    <path d="M1138 700 C1138 566 1170 476 1230 476 C1290 476 1322 566 1322 700 Z" fill="#171612"/>
  </g>
  <g filter="url(#shadow)">
    <g transform="translate(796 106) rotate(3)">
      <rect width="450" height="114" rx="14" fill="#fbf8ef" stroke="#ded5c6" stroke-width="3"/>
      <text x="28" y="50" font-family="Inter, Arial, sans-serif" font-size="28" font-weight="850" fill="#181824">Bamiyan absence</text>
      <rect x="28" y="74" width="310" height="10" rx="5" fill="#a9683f"/>
      <circle cx="388" cy="58" r="18" fill="#a9683f"/>
    </g>
    <g transform="translate(934 304) rotate(-2)">
      <rect width="396" height="114" rx="14" fill="#fbf8ef" stroke="#ded5c6" stroke-width="3"/>
      <text x="28" y="50" font-family="Inter, Arial, sans-serif" font-size="28" font-weight="850" fill="#181824">Non-self</text>
      <rect x="28" y="74" width="276" height="10" rx="5" fill="#315f48"/>
      <circle cx="334" cy="58" r="18" fill="#315f48"/>
    </g>
    <g transform="translate(834 522) rotate(2)">
      <rect width="420" height="116" rx="14" fill="#fbf8ef" stroke="#ded5c6" stroke-width="3"/>
      <text x="28" y="50" font-family="Inter, Arial, sans-serif" font-size="28" font-weight="850" fill="#181824">Empty form</text>
      <rect x="28" y="74" width="292" height="10" rx="5" fill="#c9a96e"/>
      <circle cx="356" cy="58" r="18" fill="#c9a96e"/>
    </g>
  </g>
  <g fill="none" stroke-linecap="round">
    <path d="M306 654 C478 528 608 228 1174 162" stroke="#a9683f" stroke-width="8"/>
    <path d="M430 700 C642 638 756 396 1300 358" stroke="#315f48" stroke-width="8"/>
    <path d="M558 724 C728 702 828 610 1270 584" stroke="#c9a96e" stroke-width="8"/>
  </g>
  <g fill="#a9683f"><circle cx="306" cy="654" r="16"/><circle cx="1174" cy="162" r="16"/></g>
  <g fill="#315f48"><circle cx="430" cy="700" r="16"/><circle cx="1300" cy="358" r="16"/></g>
  <g fill="#c9a96e"><circle cx="558" cy="724" r="16"/><circle cx="1270" cy="584" r="16"/></g>
  <g font-family="Inter, Arial, sans-serif" filter="url(#shadow)">
    <text x="122" y="152" font-size="30" font-weight="850" letter-spacing="4" fill="#c9a96e">THE ANALYST DOSSIER</text>
    <text x="122" y="262" font-size="78" font-weight="900" fill="#fffdf7">The Form</text>
    <text x="122" y="338" font-size="78" font-weight="900" fill="#fffdf7">Was Empty</text>
    <text x="122" y="402" font-size="35" font-weight="850" fill="#e3cf9a">Anatta, Bamiyan and non-self</text>
  </g>
</svg>
