<svg xmlns="http://www.w3.org/2000/svg" viewBox="0 0 1600 900" role="img" aria-labelledby="title desc">
  <title id="title">The Form Was Empty Anatta Bamiyan thumbnail</title>
  <desc id="desc">A restrained philosophical Analyst thumbnail connecting Anatta, Bamiyan, absence, and non-self.</desc>
  <defs>
    <filter id="shadow" x="-20%" y="-20%" width="140%" height="140%">
      <feDropShadow dx="0" dy="18" stdDeviation="18" flood-color="#2a241b" flood-opacity="0.18"/>
    </filter>
    <linearGradient id="paper" x1="0" x2="1" y1="0" y2="1">
      <stop offset="0" stop-color="#fffdf7"/>
      <stop offset="1" stop-color="#eee6d8"/>
    </linearGradient>
  </defs>
  <rect width="1600" height="900" fill="#f4efe3"/>
  <rect width="1600" height="900" fill="#bda983" opacity="0.14"/>
  <g opacity="0.24" stroke="#d5c8ad" stroke-width="1">
    <path d="M0 144H1600M0 304H1600M0 464H1600M0 624H1600M0 784H1600"/>
    <path d="M160 0V900M360 0V900M560 0V900M760 0V900M960 0V900M1160 0V900M1360 0V900"/>
  </g>
  <g fill="#857766" opacity="0.2">
    <path d="M1058 634 C1058 500 1122 392 1220 392 C1318 392 1382 500 1382 634 Z"/>
    <path d="M1138 634 C1138 536 1168 468 1220 468 C1272 468 1302 536 1302 634 Z" fill="#f4efe3"/>
  </g>
  <g filter="url(#shadow)">
    <g transform="translate(94 142) rotate(-7)">
      <rect width="456" height="244" rx="18" fill="url(#paper)" stroke="#ded5c6" stroke-width="3"/>
      <text x="34" y="54" font-family="Georgia, serif" font-size="28" font-weight="700" fill="#181824">Bamiyan absence</text>
      <rect x="34" y="90" width="336" height="12" rx="6" fill="#ded3be"/>
      <rect x="34" y="122" width="282" height="12" rx="6" fill="#ded3be"/>
      <circle cx="394" cy="58" r="20" fill="#a9683f"/>
    </g>
    <g transform="translate(1060 130) rotate(6)">
      <rect width="430" height="236" rx="18" fill="url(#paper)" stroke="#ded5c6" stroke-width="3"/>
      <text x="34" y="54" font-family="Georgia, serif" font-size="28" font-weight="700" fill="#181824">Non-self</text>
      <rect x="34" y="88" width="310" height="12" rx="6" fill="#ded3be"/>
      <rect x="34" y="120" width="338" height="12" rx="6" fill="#ded3be"/>
      <circle cx="372" cy="180" r="20" fill="#315f48"/>
    </g>
    <g transform="translate(126 638) rotate(5)">
      <rect width="486" height="164" rx="18" fill="url(#paper)" stroke="#ded5c6" stroke-width="3"/>
      <text x="34" y="54" font-family="Georgia, serif" font-size="26" font-weight="700" fill="#181824">Empty form</text>
      <rect x="34" y="88" width="350" height="12" rx="6" fill="#ded3be"/>
      <rect x="34" y="120" width="286" height="12" rx="6" fill="#ded3be"/>
      <circle cx="414" cy="74" r="20" fill="#c9a96e"/>
    </g>
  </g>
  <g fill="none" stroke-linecap="round">
    <path d="M488 196 C638 264 706 350 774 438" stroke="#a9683f" stroke-width="7"/>
    <path d="M1394 296 C1202 334 1014 394 866 448" stroke="#315f48" stroke-width="7"/>
    <path d="M548 706 C672 632 764 548 834 478" stroke="#c9a96e" stroke-width="7"/>
  </g>
  <g filter="url(#shadow)">
    <rect x="400" y="296" width="796" height="322" rx="28" fill="#fffdf8" opacity="0.97" stroke="#ded5c6" stroke-width="3"/>
    <text x="462" y="370" font-family="Inter, Arial, sans-serif" font-size="26" font-weight="850" letter-spacing="4" fill="#315f48">THE ANALYST DOSSIER</text>
    <text x="462" y="452" font-family="Georgia, serif" font-size="70" font-weight="800" fill="#181824">The Form</text>
    <text x="462" y="524" font-family="Georgia, serif" font-size="70" font-weight="800" fill="#181824">Was Empty</text>
    <text x="462" y="574" font-family="Inter, Arial, sans-serif" font-size="30" font-weight="850" fill="#a9683f">Anatta, Bamiyan and non-self</text>
  </g>
  <g font-family="Inter, Arial, sans-serif" font-weight="850">
    <g transform="translate(250 64)">
      <rect width="286" height="58" rx="29" fill="#fffdf8" stroke="#ded5c6" stroke-width="2"/>
      <circle cx="36" cy="29" r="13" fill="#a9683f"/>
      <text x="62" y="38" font-size="23" fill="#2b2925">Bamiyan absence</text>
    </g>
    <g transform="translate(1000 72)">
      <rect width="200" height="58" rx="29" fill="#fffdf8" stroke="#ded5c6" stroke-width="2"/>
      <circle cx="36" cy="29" r="13" fill="#315f48"/>
      <text x="62" y="38" font-size="23" fill="#2b2925">Non-self</text>
    </g>
    <g transform="translate(594 750)">
      <rect width="220" height="58" rx="29" fill="#fffdf8" stroke="#ded5c6" stroke-width="2"/>
      <circle cx="36" cy="29" r="13" fill="#c9a96e"/>
      <text x="62" y="38" font-size="23" fill="#2b2925">Empty form</text>
    </g>
  </g>
</svg>
