<svg xmlns="http://www.w3.org/2000/svg" viewBox="0 0 1600 900" role="img" aria-labelledby="title desc">
  <title id="title">Anatta Bamiyan empty niche thumbnail</title>
  <desc id="desc">A restrained philosophical thumbnail using an empty Bamiyan-like niche, absence, and non-self labels.</desc>
  <defs>
    <filter id="shadow" x="-20%" y="-20%" width="140%" height="140%">
      <feDropShadow dx="0" dy="20" stdDeviation="18" flood-color="#2a241b" flood-opacity="0.25"/>
    </filter>
    <radialGradient id="niche" cx="50%" cy="36%" r="68%">
      <stop offset="0" stop-color="#d8c6a6"/>
      <stop offset="1" stop-color="#8b7862"/>
    </radialGradient>
  </defs>
  <rect width="1600" height="900" fill="#f4efe3"/>
  <rect x="0" y="0" width="1600" height="900" fill="#bda983" opacity="0.16"/>
  <g filter="url(#shadow)">
    <path d="M370 812 C370 480 530 160 800 160 C1070 160 1230 480 1230 812 Z" fill="url(#niche)"/>
    <path d="M560 812 C560 590 638 374 800 374 C962 374 1040 590 1040 812 Z" fill="#f4efe3"/>
    <path d="M650 812 C650 662 690 520 800 520 C910 520 950 662 950 812 Z" fill="#d7ccb8" opacity="0.5"/>
  </g>
  <g opacity="0.16" stroke="#6f604e" stroke-width="3">
    <path d="M440 790 C472 438 600 224 800 224 C1000 224 1128 438 1160 790"/>
    <path d="M514 790 C540 520 638 314 800 314 C962 314 1060 520 1086 790"/>
  </g>
  <g filter="url(#shadow)">
    <rect x="94" y="108" width="440" height="142" rx="26" fill="#fffdf8"/>
    <text x="136" y="166" font-family="Inter, Arial, sans-serif" font-size="24" font-weight="850" letter-spacing="4" fill="#315f48">THE ANALYST DOSSIER</text>
    <text x="136" y="218" font-family="Georgia, serif" font-size="46" font-weight="800" fill="#181824">The Form</text>
    <rect x="1040" y="126" width="390" height="88" rx="44" fill="#fffdf8"/>
    <circle cx="1082" cy="170" r="14" fill="#a9683f"/>
    <text x="1114" y="180" font-family="Inter, Arial, sans-serif" font-size="25" font-weight="850" fill="#181824">Bamiyan absence</text>
    <rect x="974" y="674" width="250" height="78" rx="39" fill="#fffdf8"/>
    <circle cx="1014" cy="713" r="14" fill="#315f48"/>
    <text x="1044" y="722" font-family="Inter, Arial, sans-serif" font-size="25" font-weight="850" fill="#181824">non-self</text>
    <rect x="198" y="674" width="260" height="78" rx="39" fill="#fffdf8"/>
    <circle cx="238" cy="713" r="14" fill="#c9a96e"/>
    <text x="268" y="722" font-family="Inter, Arial, sans-serif" font-size="25" font-weight="850" fill="#181824">empty form</text>
  </g>
  <g filter="url(#shadow)">
    <rect x="450" y="568" width="700" height="176" rx="28" fill="#fffdf8" opacity="0.97"/>
    <text x="500" y="648" font-family="Georgia, serif" font-size="76" font-weight="800" fill="#181824">Was Empty</text>
    <text x="500" y="700" font-family="Inter, Arial, sans-serif" font-size="30" font-weight="850" fill="#a9683f">Anatta, Bamiyan and non-self</text>
  </g>
  <g fill="none" stroke-linecap="round" opacity="0.78">
    <path d="M1040 170 C966 268 900 390 846 526" stroke="#a9683f" stroke-width="7"/>
    <path d="M1000 674 C930 636 884 606 846 576" stroke="#315f48" stroke-width="7"/>
    <path d="M458 712 C548 654 654 596 754 560" stroke="#c9a96e" stroke-width="7"/>
  </g>
</svg>
