<svg xmlns="http://www.w3.org/2000/svg" viewBox="0 0 1600 900" role="img" aria-labelledby="title desc">
  <title id="title">Caravan Fresh consumer advocacy thumbnail</title>
  <desc id="desc">A restrained Analyst dossier thumbnail for a consumer advocacy case study about complaint routes, food safety, and corporate pressure.</desc>
  <defs>
    <filter id="shadow" x="-20%" y="-20%" width="140%" height="140%">
      <feDropShadow dx="0" dy="18" stdDeviation="18" flood-color="#2a241b" flood-opacity="0.18"/>
    </filter>
    <linearGradient id="paper" x1="0" x2="1" y1="0" y2="1">
      <stop offset="0" stop-color="#fffdf7"/>
      <stop offset="1" stop-color="#f1eadc"/>
    </linearGradient>
  </defs>
  <rect width="1600" height="900" fill="#f4efe3"/>
  <rect width="1600" height="900" fill="#315f48" opacity="0.055"/>
  <g opacity="0.24" stroke="#d6cab9" stroke-width="1">
    <path d="M0 144H1600M0 304H1600M0 464H1600M0 624H1600M0 784H1600"/>
    <path d="M160 0V900M360 0V900M560 0V900M760 0V900M960 0V900M1160 0V900M1360 0V900"/>
  </g>

  <g filter="url(#shadow)">
    <g transform="translate(86 134) rotate(-7)">
      <rect width="474" height="276" rx="18" fill="url(#paper)" stroke="#ded5c6" stroke-width="3"/>
      <text x="34" y="54" font-family="Georgia, serif" font-size="28" font-weight="700" fill="#181824">Complaint record</text>
      <rect x="34" y="88" width="352" height="12" rx="6" fill="#e0d5c5"/>
      <rect x="34" y="120" width="396" height="12" rx="6" fill="#e0d5c5"/>
      <rect x="34" y="152" width="286" height="12" rx="6" fill="#e0d5c5"/>
      <rect x="34" y="196" width="244" height="22" rx="11" fill="#315f48" opacity="0.22"/>
      <circle cx="414" cy="58" r="20" fill="#315f48"/>
    </g>
    <g transform="translate(1070 126) rotate(6)">
      <rect width="420" height="236" rx="18" fill="url(#paper)" stroke="#ded5c6" stroke-width="3"/>
      <text x="34" y="54" font-family="Georgia, serif" font-size="28" font-weight="700" fill="#181824">Food safety route</text>
      <rect x="34" y="88" width="310" height="12" rx="6" fill="#e0d5c5"/>
      <rect x="34" y="120" width="338" height="12" rx="6" fill="#e0d5c5"/>
      <rect x="34" y="164" width="230" height="18" rx="9" fill="#c9a96e" opacity="0.32"/>
      <circle cx="366" cy="184" r="20" fill="#c9a96e"/>
    </g>
    <g transform="translate(120 632) rotate(5)">
      <rect width="490" height="172" rx="18" fill="url(#paper)" stroke="#ded5c6" stroke-width="3"/>
      <text x="34" y="54" font-family="Georgia, serif" font-size="26" font-weight="700" fill="#181824">Consumer protection</text>
      <rect x="34" y="88" width="362" height="12" rx="6" fill="#e0d5c5"/>
      <rect x="34" y="120" width="286" height="12" rx="6" fill="#e0d5c5"/>
      <circle cx="420" cy="74" r="20" fill="#a9683f"/>
    </g>
    <g transform="translate(976 628) rotate(-5)">
      <rect width="482" height="164" rx="18" fill="url(#paper)" stroke="#ded5c6" stroke-width="3"/>
      <text x="34" y="54" font-family="Georgia, serif" font-size="26" font-weight="700" fill="#181824">Pressure test</text>
      <rect x="34" y="88" width="330" height="12" rx="6" fill="#e0d5c5"/>
      <rect x="34" y="120" width="390" height="12" rx="6" fill="#e0d5c5"/>
      <circle cx="410" cy="76" r="20" fill="#c65f4a"/>
    </g>
  </g>

  <g fill="#2b2a24" opacity="0.16">
    <rect x="1050" y="432" width="280" height="170" rx="22"/>
    <circle cx="1118" cy="520" r="34"/>
    <rect x="1168" y="486" width="112" height="18" rx="9"/>
    <rect x="1168" y="530" width="134" height="18" rx="9"/>
  </g>

  <g fill="none" stroke-linecap="round">
    <path d="M500 190 C644 262 700 358 766 438" stroke="#315f48" stroke-width="7"/>
    <path d="M1398 300 C1202 334 1016 394 864 448" stroke="#c9a96e" stroke-width="7"/>
    <path d="M552 702 C672 630 762 546 832 478" stroke="#a9683f" stroke-width="7"/>
    <path d="M1370 684 C1150 628 1022 548 862 476" stroke="#c65f4a" stroke-width="5" stroke-dasharray="14 18" opacity="0.68"/>
  </g>

  <g filter="url(#shadow)">
    <rect x="410" y="306" width="780" height="300" rx="28" fill="#fffdf8" opacity="0.97" stroke="#dfd4c4" stroke-width="3"/>
    <text x="468" y="382" font-family="Inter, Arial, sans-serif" font-size="27" font-weight="850" letter-spacing="4" fill="#315f48">THE ANALYST DOSSIER</text>
    <text x="468" y="456" font-family="Georgia, serif" font-size="70" font-weight="800" fill="#181824">Caravan Fresh</text>
    <text x="468" y="520" font-family="Georgia, serif" font-size="56" font-weight="800" fill="#181824">Chicken Cheese Bomb</text>
    <text x="468" y="568" font-family="Inter, Arial, sans-serif" font-size="30" font-weight="850" fill="#a9683f">A consumer advocacy case study</text>
  </g>

  <g font-family="Inter, Arial, sans-serif" font-weight="850">
    <g transform="translate(236 62)">
      <rect width="246" height="58" rx="29" fill="#fffdf8" stroke="#dfd4c4" stroke-width="2"/>
      <circle cx="36" cy="29" r="13" fill="#315f48"/>
      <text x="62" y="38" font-size="23" fill="#2b2925">Complaint route</text>
    </g>
    <g transform="translate(1018 70)">
      <rect width="234" height="58" rx="29" fill="#fffdf8" stroke="#dfd4c4" stroke-width="2"/>
      <circle cx="36" cy="29" r="13" fill="#c9a96e"/>
      <text x="62" y="38" font-size="23" fill="#2b2925">Food safety</text>
    </g>
    <g transform="translate(594 748)">
      <rect width="294" height="58" rx="29" fill="#fffdf8" stroke="#dfd4c4" stroke-width="2"/>
      <circle cx="36" cy="29" r="13" fill="#c65f4a"/>
      <text x="62" y="38" font-size="23" fill="#2b2925">Corporate pressure</text>
    </g>
  </g>
</svg>
