<svg xmlns="http://www.w3.org/2000/svg" viewBox="0 0 1600 900" role="img" aria-labelledby="title desc">
  <title id="title">The Galanguru Files paper evidence-board thumbnail</title>
  <desc id="desc">A light Analyst dossier thumbnail showing procurement papers, coal risk, and accountability threads for The Galanguru Files.</desc>
  <defs>
    <filter id="shadow" x="-20%" y="-20%" width="140%" height="140%">
      <feDropShadow dx="0" dy="18" stdDeviation="18" flood-color="#2a241b" flood-opacity="0.18"/>
    </filter>
    <linearGradient id="paper" x1="0" x2="1" y1="0" y2="1">
      <stop offset="0" stop-color="#fffdf7"/>
      <stop offset="1" stop-color="#f1eadc"/>
    </linearGradient>
  </defs>
  <rect width="1600" height="900" fill="#f4efe3"/>
  <rect x="0" y="0" width="1600" height="900" fill="#dacba9" opacity="0.2"/>
  <g opacity="0.28" stroke="#d5c8ad" stroke-width="1">
    <path d="M0 140 H1600M0 300 H1600M0 460 H1600M0 620 H1600M0 780 H1600"/>
    <path d="M160 0 V900M360 0 V900M560 0 V900M760 0 V900M960 0 V900M1160 0 V900M1360 0 V900"/>
  </g>

  <g filter="url(#shadow)">
    <g transform="translate(92 144) rotate(-7)">
      <rect width="440" height="250" rx="18" fill="url(#paper)" stroke="#ded5c6" stroke-width="3"/>
      <text x="34" y="54" font-family="Georgia, serif" font-size="28" font-weight="700" fill="#171822">Coal tender note</text>
      <rect x="34" y="84" width="330" height="12" rx="6" fill="#cbb78b"/>
      <rect x="34" y="116" width="260" height="12" rx="6" fill="#e2d8c5"/>
      <rect x="34" y="148" width="360" height="12" rx="6" fill="#e2d8c5"/>
      <rect x="34" y="180" width="210" height="12" rx="6" fill="#e2d8c5"/>
      <circle cx="398" cy="56" r="20" fill="#c06b4d"/>
    </g>
    <g transform="translate(1064 118) rotate(6)">
      <rect width="430" height="246" rx="18" fill="url(#paper)" stroke="#ded5c6" stroke-width="3"/>
      <text x="34" y="54" font-family="Georgia, serif" font-size="28" font-weight="700" fill="#171822">Energy risk</text>
      <rect x="34" y="92" width="332" height="14" rx="7" fill="#315f48" opacity="0.72"/>
      <rect x="34" y="128" width="276" height="12" rx="6" fill="#e2d8c5"/>
      <rect x="34" y="160" width="346" height="12" rx="6" fill="#e2d8c5"/>
      <circle cx="382" cy="190" r="21" fill="#c9a96e"/>
    </g>
    <g transform="translate(108 620) rotate(5)">
      <rect width="520" height="184" rx="18" fill="url(#paper)" stroke="#ded5c6" stroke-width="3"/>
      <text x="34" y="54" font-family="Georgia, serif" font-size="26" font-weight="700" fill="#171822">Public cost</text>
      <rect x="34" y="88" width="392" height="12" rx="6" fill="#e2d8c5"/>
      <rect x="34" y="120" width="320" height="12" rx="6" fill="#e2d8c5"/>
      <circle cx="456" cy="74" r="20" fill="#315f48"/>
    </g>
    <g transform="translate(944 610) rotate(-5)">
      <rect width="500" height="192" rx="18" fill="url(#paper)" stroke="#ded5c6" stroke-width="3"/>
      <text x="34" y="54" font-family="Georgia, serif" font-size="26" font-weight="700" fill="#171822">Accountability file</text>
      <rect x="34" y="88" width="364" height="12" rx="6" fill="#e2d8c5"/>
      <rect x="34" y="120" width="420" height="12" rx="6" fill="#e2d8c5"/>
      <circle cx="430" cy="76" r="20" fill="#a9683f"/>
    </g>
  </g>

  <g fill="#282720" opacity="0.18">
    <path d="M1060 492 L1160 354 L1288 492 Z"/>
    <path d="M1134 508 L1266 308 L1430 508 Z"/>
    <path d="M1220 516 L1324 386 L1450 516 Z"/>
  </g>

  <g fill="none" stroke-linecap="round">
    <path d="M488 196 C654 256 676 370 742 456" stroke="#c9a96e" stroke-width="7"/>
    <path d="M1378 310 C1196 340 1050 390 866 458" stroke="#c06b4d" stroke-width="7"/>
    <path d="M564 682 C690 610 770 548 854 490" stroke="#315f48" stroke-width="7"/>
    <path d="M1358 646 C1160 620 1034 544 872 488" stroke="#315f48" stroke-width="5" stroke-dasharray="14 18" opacity="0.7"/>
    <path d="M420 202 C616 512 800 486 1100 670" stroke="#c9a96e" stroke-width="5" stroke-dasharray="18 20" opacity="0.72"/>
  </g>

  <g filter="url(#shadow)">
    <rect x="404" y="292" width="780" height="314" rx="26" fill="#fffdf8" opacity="0.96" stroke="#dfd4c4" stroke-width="3"/>
    <text x="462" y="368" font-family="Inter, Arial, sans-serif" font-size="26" font-weight="800" letter-spacing="4" fill="#315f48">THE ANALYST DOSSIER</text>
    <text x="462" y="450" font-family="Georgia, serif" font-size="68" font-weight="800" fill="#181824">The Galanguru</text>
    <text x="462" y="522" font-family="Georgia, serif" font-size="68" font-weight="800" fill="#181824">Files</text>
    <text x="462" y="572" font-family="Inter, Arial, sans-serif" font-size="31" font-weight="800" fill="#a9683f">Coal, corruption and cascading crises</text>
  </g>

  <g font-family="Inter, Arial, sans-serif" font-weight="800">
    <g transform="translate(250 64)">
      <rect width="326" height="58" rx="29" fill="#fffdf8" stroke="#dfd4c4" stroke-width="2"/>
      <circle cx="36" cy="29" r="13" fill="#c9a96e"/>
      <text x="62" y="38" font-size="23" fill="#2b2b25">Coal procurement</text>
    </g>
    <g transform="translate(946 78)">
      <rect width="342" height="58" rx="29" fill="#fffdf8" stroke="#dfd4c4" stroke-width="2"/>
      <circle cx="36" cy="29" r="13" fill="#c06b4d"/>
      <text x="62" y="38" font-size="23" fill="#2b2b25">Accountability chain</text>
    </g>
    <g transform="translate(580 748)">
      <rect width="310" height="58" rx="29" fill="#fffdf8" stroke="#dfd4c4" stroke-width="2"/>
      <circle cx="36" cy="29" r="13" fill="#315f48"/>
      <text x="62" y="38" font-size="23" fill="#2b2b25">Cascading crisis</text>
    </g>
  </g>
</svg>
