<svg xmlns="http://www.w3.org/2000/svg" viewBox="0 0 1600 900" role="img" aria-labelledby="title desc">
  <title id="title">The Galanguru Files port evidence-board thumbnail</title>
  <desc id="desc">A darker Analyst dossier thumbnail showing coal shipment silhouettes, pinned records, and risk-route threads.</desc>
  <defs>
    <filter id="shadow" x="-20%" y="-20%" width="140%" height="140%">
      <feDropShadow dx="0" dy="20" stdDeviation="18" flood-color="#000" flood-opacity="0.35"/>
    </filter>
    <linearGradient id="bg" x1="0" x2="1" y1="0" y2="1">
      <stop offset="0" stop-color="#171a16"/>
      <stop offset="1" stop-color="#292216"/>
    </linearGradient>
  </defs>
  <rect width="1600" height="900" fill="url(#bg)"/>
  <circle cx="1228" cy="232" r="270" fill="#915338" opacity="0.23"/>
  <circle cx="1136" cy="656" r="250" fill="#315f48" opacity="0.22"/>
  <g opacity="0.28" stroke="#fbf6e9" stroke-width="1">
    <path d="M0 160 H1600M0 330 H1600M0 500 H1600M0 670 H1600"/>
    <path d="M220 0 V900M480 0 V900M740 0 V900M1000 0 V900M1260 0 V900"/>
  </g>

  <g fill="#0f110f">
    <path d="M102 682 L234 538 L392 682 Z"/>
    <path d="M282 704 L482 438 L724 704 Z"/>
    <path d="M560 716 L730 518 L934 716 Z"/>
    <rect x="80" y="706" width="864" height="28" rx="6"/>
    <rect x="1010" y="660" width="438" height="54" rx="4"/>
    <rect x="1100" y="594" width="178" height="66" rx="4"/>
    <rect x="1294" y="624" width="98" height="36" rx="3"/>
  </g>

  <g filter="url(#shadow)">
    <g transform="translate(826 98) rotate(3)">
      <rect width="438" height="112" rx="14" fill="#fbf8ef" stroke="#dacdb9" stroke-width="3"/>
      <text x="28" y="48" font-family="Inter, Arial, sans-serif" font-size="28" font-weight="850" fill="#1a1815">Coal procurement</text>
      <rect x="28" y="70" width="300" height="10" rx="5" fill="#c9a96e"/>
      <circle cx="382" cy="56" r="18" fill="#c9a96e"/>
    </g>
    <g transform="translate(936 290) rotate(-2)">
      <rect width="438" height="116" rx="14" fill="#fbf8ef" stroke="#dacdb9" stroke-width="3"/>
      <text x="28" y="50" font-family="Inter, Arial, sans-serif" font-size="28" font-weight="850" fill="#1a1815">Accountability chain</text>
      <rect x="28" y="74" width="326" height="10" rx="5" fill="#c06b4d"/>
      <circle cx="376" cy="58" r="18" fill="#c06b4d"/>
    </g>
    <g transform="translate(848 514) rotate(2)">
      <rect width="470" height="116" rx="14" fill="#fbf8ef" stroke="#dacdb9" stroke-width="3"/>
      <text x="28" y="50" font-family="Inter, Arial, sans-serif" font-size="28" font-weight="850" fill="#1a1815">Cascading crisis</text>
      <rect x="28" y="74" width="344" height="10" rx="5" fill="#315f48"/>
      <circle cx="404" cy="58" r="18" fill="#315f48"/>
    </g>
  </g>

  <g fill="none" stroke-linecap="round">
    <path d="M322 650 C454 524 626 224 1208 154" stroke="#c9a96e" stroke-width="8"/>
    <path d="M430 694 C650 650 746 392 1290 348" stroke="#c06b4d" stroke-width="8"/>
    <path d="M574 722 C726 700 820 600 1252 574" stroke="#315f48" stroke-width="8"/>
    <path d="M1288 154 C1032 248 832 300 588 586" stroke="#c9a96e" stroke-width="5" stroke-dasharray="18 18" opacity="0.7"/>
    <path d="M1314 348 C1050 420 840 484 574 722" stroke="#c06b4d" stroke-width="5" stroke-dasharray="16 20" opacity="0.7"/>
  </g>
  <g fill="#c9a96e"><circle cx="322" cy="650" r="16"/><circle cx="1208" cy="154" r="16"/></g>
  <g fill="#c06b4d"><circle cx="430" cy="694" r="16"/><circle cx="1290" cy="348" r="16"/></g>
  <g fill="#315f48"><circle cx="574" cy="722" r="16"/><circle cx="1252" cy="574" r="16"/></g>

  <g font-family="Inter, Arial, sans-serif" filter="url(#shadow)">
    <text x="122" y="164" font-size="30" font-weight="850" letter-spacing="4" fill="#c9a96e">THE ANALYST DOSSIER</text>
    <text x="122" y="270" font-size="74" font-weight="900" fill="#fffdf7">The Galanguru</text>
    <text x="122" y="342" font-size="74" font-weight="900" fill="#fffdf7">Files</text>
    <text x="122" y="406" font-size="36" font-weight="850" fill="#e3cf9a">Coal, corruption and cascading crises</text>
    <rect x="122" y="450" width="470" height="68" rx="34" fill="#fbf8ef" opacity="0.94"/>
    <text x="152" y="494" font-size="24" font-weight="850" fill="#315f48">procurement route + public cost</text>
  </g>
</svg>
