<svg xmlns="http://www.w3.org/2000/svg" viewBox="0 0 1600 900" role="img" aria-labelledby="title desc">
  <title id="title">Happy Womaniser Day dark editorial thumbnail</title>
  <desc id="desc">A dark restrained media-accountability thumbnail with editorial routes, redacted evidence strips, and civic accountability labels.</desc>
  <defs>
    <filter id="shadow" x="-20%" y="-20%" width="140%" height="140%">
      <feDropShadow dx="0" dy="20" stdDeviation="18" flood-color="#000" flood-opacity="0.36"/>
    </filter>
  </defs>
  <rect width="1600" height="900" fill="#151814"/>
  <circle cx="1230" cy="228" r="260" fill="#a8563e" opacity="0.22"/>
  <circle cx="1142" cy="650" r="260" fill="#315f48" opacity="0.2"/>
  <g opacity="0.22" stroke="#fff8eb" stroke-width="1">
    <path d="M0 160H1600M0 330H1600M0 500H1600M0 670H1600"/>
    <path d="M220 0V900M480 0V900M740 0V900M1000 0V900M1260 0V900"/>
  </g>
  <g filter="url(#shadow)">
    <g transform="translate(760 102) rotate(3)">
      <rect width="500" height="116" rx="14" fill="#fbf8ef" stroke="#dacdb9" stroke-width="3"/>
      <text x="28" y="50" font-family="Inter, Arial, sans-serif" font-size="28" font-weight="850" fill="#181824">State media platform</text>
      <rect x="28" y="74" width="328" height="10" rx="5" fill="#c65f4a"/>
      <circle cx="436" cy="58" r="18" fill="#c65f4a"/>
    </g>
    <g transform="translate(918 304) rotate(-2)">
      <rect width="500" height="112" rx="14" fill="#fbf8ef" stroke="#dacdb9" stroke-width="3"/>
      <text x="28" y="48" font-family="Inter, Arial, sans-serif" font-size="28" font-weight="850" fill="#181824">Women's Day framing</text>
      <rect x="28" y="72" width="318" height="10" rx="5" fill="#c9a96e"/>
      <circle cx="432" cy="56" r="18" fill="#c9a96e"/>
    </g>
    <g transform="translate(816 518) rotate(2)">
      <rect width="520" height="116" rx="14" fill="#fbf8ef" stroke="#dacdb9" stroke-width="3"/>
      <text x="28" y="50" font-family="Inter, Arial, sans-serif" font-size="28" font-weight="850" fill="#181824">Accountability gap</text>
      <rect x="28" y="74" width="344" height="10" rx="5" fill="#315f48"/>
      <circle cx="454" cy="58" r="18" fill="#315f48"/>
    </g>
  </g>
  <g fill="#fff8eb" opacity="0.1">
    <rect x="110" y="574" width="470" height="28" rx="14"/>
    <rect x="110" y="626" width="540" height="28" rx="14"/>
    <rect x="110" y="678" width="396" height="28" rx="14"/>
  </g>
  <g fill="none" stroke-linecap="round">
    <path d="M306 636 C492 530 610 206 1188 160" stroke="#c65f4a" stroke-width="8"/>
    <path d="M420 694 C646 634 748 390 1298 360" stroke="#c9a96e" stroke-width="8"/>
    <path d="M548 724 C710 708 826 604 1250 580" stroke="#315f48" stroke-width="8"/>
    <path d="M1262 160 C1008 246 806 306 554 626" stroke="#c65f4a" stroke-width="5" stroke-dasharray="18 18" opacity="0.66"/>
    <path d="M1304 360 C1052 430 820 506 548 724" stroke="#315f48" stroke-width="5" stroke-dasharray="16 20" opacity="0.66"/>
  </g>
  <g fill="#c65f4a"><circle cx="306" cy="636" r="16"/><circle cx="1188" cy="160" r="16"/></g>
  <g fill="#c9a96e"><circle cx="420" cy="694" r="16"/><circle cx="1298" cy="360" r="16"/></g>
  <g fill="#315f48"><circle cx="548" cy="724" r="16"/><circle cx="1250" cy="580" r="16"/></g>
  <g font-family="Inter, Arial, sans-serif" filter="url(#shadow)">
    <text x="122" y="154" font-size="30" font-weight="850" letter-spacing="4" fill="#c9a96e">THE ANALYST DOSSIER</text>
    <text x="122" y="260" font-size="76" font-weight="900" fill="#fffdf7">Happy Womaniser</text>
    <text x="122" y="334" font-size="76" font-weight="900" fill="#fffdf7">Day!</text>
    <text x="122" y="398" font-size="35" font-weight="850" fill="#e3cf9a">Media accountability, not theatre</text>
    <rect x="122" y="444" width="520" height="68" rx="34" fill="#fbf8ef" opacity="0.94"/>
    <text x="154" y="488" font-size="24" font-weight="850" fill="#315f48">platform route + evidence review</text>
  </g>
</svg>
