<svg xmlns="http://www.w3.org/2000/svg" viewBox="0 0 1600 900" role="img" aria-labelledby="title desc">
  <title id="title">Happy Womaniser Day media-accountability thumbnail</title>
  <desc id="desc">A restrained Analyst dossier thumbnail about media accountability, state media platforming, and evidence review.</desc>
  <defs>
    <filter id="shadow" x="-20%" y="-20%" width="140%" height="140%">
      <feDropShadow dx="0" dy="18" stdDeviation="18" flood-color="#2a201b" flood-opacity="0.18"/>
    </filter>
    <linearGradient id="paper" x1="0" x2="1" y1="0" y2="1">
      <stop offset="0" stop-color="#fffdf8"/>
      <stop offset="1" stop-color="#f1e8dc"/>
    </linearGradient>
  </defs>
  <rect width="1600" height="900" fill="#f4efe3"/>
  <rect width="1600" height="900" fill="#c65f4a" opacity="0.055"/>
  <g opacity="0.24" stroke="#d6cab9" stroke-width="1">
    <path d="M0 144H1600M0 304H1600M0 464H1600M0 624H1600M0 784H1600"/>
    <path d="M160 0V900M360 0V900M560 0V900M760 0V900M960 0V900M1160 0V900M1360 0V900"/>
  </g>
  <g filter="url(#shadow)">
    <g transform="translate(86 132) rotate(-7)">
      <rect width="472" height="282" rx="18" fill="url(#paper)" stroke="#ded4c6" stroke-width="3"/>
      <text x="32" y="52" font-family="Georgia, serif" font-size="28" font-weight="700" fill="#181824">Women's Day feature</text>
      <rect x="32" y="82" width="354" height="12" rx="6" fill="#e0d5c5"/>
      <rect x="32" y="114" width="392" height="12" rx="6" fill="#e0d5c5"/>
      <rect x="32" y="146" width="286" height="12" rx="6" fill="#e0d5c5"/>
      <rect x="32" y="194" width="362" height="24" rx="12" fill="#c65f4a" opacity="0.25"/>
      <text x="50" y="213" font-family="Inter, Arial, sans-serif" font-size="15" font-weight="800" fill="#8b432f">platforming question</text>
      <circle cx="414" cy="56" r="20" fill="#c65f4a"/>
    </g>
    <g transform="translate(1052 112) rotate(6)">
      <rect width="438" height="246" rx="18" fill="url(#paper)" stroke="#ded4c6" stroke-width="3"/>
      <text x="34" y="54" font-family="Georgia, serif" font-size="28" font-weight="700" fill="#181824">Evidence review</text>
      <rect x="34" y="88" width="326" height="12" rx="6" fill="#e0d5c5"/>
      <rect x="34" y="120" width="300" height="12" rx="6" fill="#e0d5c5"/>
      <rect x="34" y="152" width="362" height="12" rx="6" fill="#e0d5c5"/>
      <rect x="34" y="188" width="250" height="18" rx="9" fill="#315f48" opacity="0.25"/>
      <circle cx="386" cy="186" r="20" fill="#315f48"/>
    </g>
    <g transform="translate(88 636) rotate(5)">
      <rect width="498" height="164" rx="18" fill="url(#paper)" stroke="#ded4c6" stroke-width="3"/>
      <text x="34" y="54" font-family="Georgia, serif" font-size="26" font-weight="700" fill="#181824">Public record</text>
      <rect x="34" y="88" width="360" height="12" rx="6" fill="#e0d5c5"/>
      <rect x="34" y="120" width="288" height="12" rx="6" fill="#e0d5c5"/>
      <circle cx="430" cy="74" r="20" fill="#c9a96e"/>
    </g>
    <g transform="translate(980 624) rotate(-5)">
      <rect width="470" height="174" rx="18" fill="url(#paper)" stroke="#ded4c6" stroke-width="3"/>
      <text x="34" y="54" font-family="Georgia, serif" font-size="26" font-weight="700" fill="#181824">Editorial duty</text>
      <rect x="34" y="90" width="320" height="12" rx="6" fill="#e0d5c5"/>
      <rect x="34" y="122" width="380" height="12" rx="6" fill="#e0d5c5"/>
      <circle cx="402" cy="76" r="20" fill="#315f48"/>
    </g>
  </g>
  <g fill="none" stroke-linecap="round">
    <path d="M486 188 C636 274 702 346 772 432" stroke="#c65f4a" stroke-width="7"/>
    <path d="M1404 294 C1192 328 1012 390 866 444" stroke="#315f48" stroke-width="7"/>
    <path d="M516 702 C646 642 760 540 834 474" stroke="#c9a96e" stroke-width="7"/>
    <path d="M1366 682 C1152 630 1026 544 862 476" stroke="#315f48" stroke-width="5" stroke-dasharray="14 18" opacity="0.7"/>
    <path d="M460 190 C594 500 780 488 1142 682" stroke="#c65f4a" stroke-width="5" stroke-dasharray="18 20" opacity="0.68"/>
  </g>
  <g filter="url(#shadow)">
    <rect x="388" y="292" width="822" height="330" rx="28" fill="#fffdf8" opacity="0.97" stroke="#dfd4c4" stroke-width="3"/>
    <text x="452" y="366" font-family="Inter, Arial, sans-serif" font-size="26" font-weight="850" letter-spacing="4" fill="#315f48">THE ANALYST DOSSIER</text>
    <text x="452" y="448" font-family="Georgia, serif" font-size="68" font-weight="800" fill="#181824">Happy Womaniser</text>
    <text x="452" y="520" font-family="Georgia, serif" font-size="68" font-weight="800" fill="#181824">Day!</text>
    <text x="452" y="574" font-family="Inter, Arial, sans-serif" font-size="30" font-weight="850" fill="#a8563e">State media, platforming, accountability</text>
  </g>
  <g font-family="Inter, Arial, sans-serif" font-weight="850">
    <g transform="translate(214 62)">
      <rect width="336" height="58" rx="29" fill="#fffdf8" stroke="#dfd4c4" stroke-width="2"/>
      <circle cx="36" cy="29" r="13" fill="#c65f4a"/>
      <text x="62" y="38" font-size="23" fill="#2b2925">State media platform</text>
    </g>
    <g transform="translate(930 64)">
      <rect width="348" height="58" rx="29" fill="#fffdf8" stroke="#dfd4c4" stroke-width="2"/>
      <circle cx="36" cy="29" r="13" fill="#c9a96e"/>
      <text x="62" y="38" font-size="23" fill="#2b2925">Women's Day framing</text>
    </g>
    <g transform="translate(576 750)">
      <rect width="326" height="58" rx="29" fill="#fffdf8" stroke="#dfd4c4" stroke-width="2"/>
      <circle cx="36" cy="29" r="13" fill="#315f48"/>
      <text x="62" y="38" font-size="23" fill="#2b2925">Accountability gap</text>
    </g>
  </g>
</svg>
