<svg xmlns="http://www.w3.org/2000/svg" viewBox="0 0 1600 900" role="img" aria-labelledby="title desc">
  <title id="title">Mullivaikkal and 40,000 deaths evidence-board thumbnail</title>
  <desc id="desc">A restrained Analyst-style evidence board thumbnail with source cards, threads, and the central 40,000 deaths question.</desc>
  <rect width="1600" height="900" fill="#f5f1e6"/>
  <rect x="92" y="84" width="1416" height="732" rx="18" fill="#fffdfa" stroke="#ded4c4" stroke-width="4"/>
  <g opacity="0.92">
    <rect x="170" y="154" width="430" height="210" rx="12" fill="#ffffff" stroke="#d8cfc1" stroke-width="3"/>
    <rect x="1020" y="136" width="330" height="190" rx="12" fill="#ffffff" stroke="#d8cfc1" stroke-width="3"/>
    <rect x="178" y="540" width="350" height="160" rx="12" fill="#ffffff" stroke="#d8cfc1" stroke-width="3"/>
    <rect x="960" y="550" width="430" height="172" rx="12" fill="#ffffff" stroke="#d8cfc1" stroke-width="3"/>
    <rect x="664" y="188" width="272" height="148" rx="12" fill="#ffffff" stroke="#d8cfc1" stroke-width="3"/>
  </g>
  <g fill="none" stroke-linecap="round" stroke-width="8" opacity="0.78">
    <path d="M402 256 C570 210 662 260 786 452 C904 634 1052 632 1174 634" stroke="#3d7a5a"/>
    <path d="M1194 230 C1006 272 905 340 784 452 C648 576 486 622 352 620" stroke="#a0522d"/>
    <path d="M352 620 C550 484 656 408 800 452 C982 508 1112 440 1284 230" stroke="#c9a96e"/>
    <path d="M790 250 C848 330 866 404 784 452 C724 488 648 520 384 256" stroke="#1b3a2d"/>
  </g>
  <g>
    <circle cx="402" cy="256" r="16" fill="#3d7a5a"/>
    <circle cx="1194" cy="230" r="16" fill="#a0522d"/>
    <circle cx="352" cy="620" r="16" fill="#c9a96e"/>
    <circle cx="1174" cy="634" r="16" fill="#1b3a2d"/>
    <circle cx="784" cy="452" r="21" fill="#a0522d"/>
    <circle cx="800" cy="250" r="14" fill="#3d7a5a"/>
  </g>
  <g font-family="Inter, Arial, sans-serif" fill="#1a1815">
    <text x="206" y="210" font-size="34" font-weight="800">Source trail</text>
    <text x="206" y="258" font-size="27" fill="#5f5a52">UN-linked estimate route</text>
    <text x="1056" y="196" font-size="34" font-weight="800">SEO hardening</text>
    <text x="1056" y="244" font-size="27" fill="#5f5a52">Wikipedia + mirrors</text>
    <text x="214" y="602" font-size="30" font-weight="800">Not Mullivaikkal-only</text>
    <text x="214" y="648" font-size="24" fill="#5f5a52">category + geography matter</text>
    <text x="994" y="614" font-size="30" font-weight="800">Truth without denial</text>
    <text x="994" y="660" font-size="24" fill="#5f5a52">accountability, source discipline</text>
  </g>
  <rect x="466" y="372" width="668" height="168" rx="18" fill="#fff7ea" stroke="#d2694c" stroke-width="6"/>
  <text x="800" y="436" text-anchor="middle" font-family="Georgia, serif" font-size="58" font-weight="800" fill="#181827">40,000 deaths?</text>
  <text x="800" y="486" text-anchor="middle" font-family="Inter, Arial, sans-serif" font-size="31" font-weight="800" fill="#2d6b4d">Sri Lanka cannot beat propaganda without truth</text>
  <text x="800" y="770" text-anchor="middle" font-family="Inter, Arial, sans-serif" font-size="26" font-weight="800" letter-spacing="3" fill="#3d7a5a">THE ANALYST DOSSIER</text>
</svg>
