<svg xmlns="http://www.w3.org/2000/svg" viewBox="0 0 1600 900" role="img" aria-labelledby="title desc">
  <title id="title">Sri Lanka cricket corruption scorecard evidence board</title>
  <desc id="desc">A restrained Analyst thumbnail about Sri Lankan cricket, institutional collapse, politics, and money routes.</desc>
  <defs>
    <filter id="shadow" x="-20%" y="-20%" width="140%" height="140%">
      <feDropShadow dx="0" dy="18" stdDeviation="18" flood-color="#1b241c" flood-opacity="0.18"/>
    </filter>
    <linearGradient id="paper" x1="0" x2="1" y1="0" y2="1">
      <stop offset="0" stop-color="#fffdf7"/>
      <stop offset="1" stop-color="#edf2e9"/>
    </linearGradient>
  </defs>
  <rect width="1600" height="900" fill="#f4efe3"/>
  <rect width="1600" height="900" fill="#315f48" opacity="0.06"/>
  <g opacity="0.24" stroke="#d1d7c9" stroke-width="1">
    <path d="M0 144H1600M0 304H1600M0 464H1600M0 624H1600M0 784H1600"/>
    <path d="M160 0V900M360 0V900M560 0V900M760 0V900M960 0V900M1160 0V900M1360 0V900"/>
  </g>
  <g fill="#315f48" opacity="0.14">
    <ellipse cx="1184" cy="506" rx="210" ry="84"/>
    <rect x="1036" y="500" width="296" height="10" rx="5"/>
    <path d="M1048 454 C1120 508 1210 510 1320 454" fill="none" stroke="#315f48" stroke-width="12" stroke-linecap="round"/>
  </g>
  <g filter="url(#shadow)">
    <g transform="translate(86 134) rotate(-7)">
      <rect width="470" height="256" rx="18" fill="url(#paper)" stroke="#d8ddcf" stroke-width="3"/>
      <text x="34" y="54" font-family="Georgia, serif" font-size="28" font-weight="700" fill="#181824">Selection file</text>
      <rect x="34" y="88" width="346" height="12" rx="6" fill="#dce1d3"/>
      <rect x="34" y="120" width="390" height="12" rx="6" fill="#dce1d3"/>
      <rect x="34" y="152" width="276" height="12" rx="6" fill="#dce1d3"/>
      <circle cx="410" cy="58" r="20" fill="#315f48"/>
    </g>
    <g transform="translate(1058 118) rotate(6)">
      <rect width="430" height="236" rx="18" fill="url(#paper)" stroke="#d8ddcf" stroke-width="3"/>
      <text x="34" y="54" font-family="Georgia, serif" font-size="28" font-weight="700" fill="#181824">Boardroom notes</text>
      <rect x="34" y="88" width="310" height="12" rx="6" fill="#dce1d3"/>
      <rect x="34" y="120" width="338" height="12" rx="6" fill="#dce1d3"/>
      <circle cx="376" cy="178" r="20" fill="#a9683f"/>
    </g>
    <g transform="translate(108 632) rotate(5)">
      <rect width="492" height="172" rx="18" fill="url(#paper)" stroke="#d8ddcf" stroke-width="3"/>
      <text x="34" y="54" font-family="Georgia, serif" font-size="26" font-weight="700" fill="#181824">Scorecard</text>
      <rect x="34" y="88" width="362" height="12" rx="6" fill="#dce1d3"/>
      <rect x="34" y="120" width="286" height="12" rx="6" fill="#dce1d3"/>
      <circle cx="420" cy="74" r="20" fill="#c9a96e"/>
    </g>
  </g>
  <g fill="none" stroke-linecap="round">
    <path d="M494 190 C644 262 704 350 774 438" stroke="#315f48" stroke-width="7"/>
    <path d="M1400 292 C1204 334 1012 392 866 448" stroke="#c9a96e" stroke-width="7"/>
    <path d="M552 702 C674 632 764 546 834 478" stroke="#a9683f" stroke-width="7"/>
    <path d="M426 196 C590 490 778 486 1126 680" stroke="#c9a96e" stroke-width="5" stroke-dasharray="18 20" opacity="0.7"/>
  </g>
  <g filter="url(#shadow)">
    <rect x="398" y="292" width="802" height="330" rx="28" fill="#fffdf8" opacity="0.97" stroke="#d8ddcf" stroke-width="3"/>
    <text x="462" y="366" font-family="Inter, Arial, sans-serif" font-size="26" font-weight="850" letter-spacing="4" fill="#315f48">THE ANALYST DOSSIER</text>
    <text x="462" y="446" font-family="Georgia, serif" font-size="68" font-weight="800" fill="#181824">The Death of</text>
    <text x="462" y="518" font-family="Georgia, serif" font-size="68" font-weight="800" fill="#181824">Sri Lankan Cricket</text>
    <text x="462" y="572" font-family="Inter, Arial, sans-serif" font-size="30" font-weight="850" fill="#a9683f">Politics, money and institutional collapse</text>
  </g>
  <g font-family="Inter, Arial, sans-serif" font-weight="850">
    <g transform="translate(230 62)">
      <rect width="302" height="58" rx="29" fill="#fffdf8" stroke="#d8ddcf" stroke-width="2"/>
      <circle cx="36" cy="29" r="13" fill="#315f48"/>
      <text x="62" y="38" font-size="23" fill="#2b2925">Selection politics</text>
    </g>
    <g transform="translate(1010 70)">
      <rect width="224" height="58" rx="29" fill="#fffdf8" stroke="#d8ddcf" stroke-width="2"/>
      <circle cx="36" cy="29" r="13" fill="#c9a96e"/>
      <text x="62" y="38" font-size="23" fill="#2b2925">Money route</text>
    </g>
    <g transform="translate(560 750)">
      <rect width="386" height="58" rx="29" fill="#fffdf8" stroke="#d8ddcf" stroke-width="2"/>
      <circle cx="36" cy="29" r="13" fill="#a9683f"/>
      <text x="62" y="38" font-size="23" fill="#2b2925">Institutional collapse</text>
    </g>
  </g>
</svg>
