<svg xmlns="http://www.w3.org/2000/svg" viewBox="0 0 1600 900" role="img" aria-labelledby="title desc">
  <title id="title">Sri Lanka and the Hormuz Crisis shipping lane thumbnail</title>
  <desc id="desc">A restrained geopolitical thumbnail showing oil routes, shipping lanes, price shock, and Sri Lanka exposure.</desc>
  <defs>
    <filter id="shadow" x="-20%" y="-20%" width="140%" height="140%">
      <feDropShadow dx="0" dy="18" stdDeviation="18" flood-color="#122024" flood-opacity="0.22"/>
    </filter>
    <linearGradient id="sea" x1="0" x2="1" y1="0" y2="1">
      <stop offset="0" stop-color="#dce9e7"/>
      <stop offset="1" stop-color="#a9c7c8"/>
    </linearGradient>
  </defs>
  <rect width="1600" height="900" fill="#f4efe3"/>
  <rect x="0" y="0" width="1600" height="900" fill="url(#sea)" opacity="0.86"/>
  <path d="M0 180 C260 220 420 310 590 382 C752 450 890 426 1010 336 C1176 210 1356 150 1600 190 L1600 0 L0 0 Z" fill="#d7c59f" opacity="0.86"/>
  <path d="M0 760 C256 690 430 622 620 600 C820 576 1028 642 1218 740 C1378 822 1490 846 1600 812 L1600 900 L0 900 Z" fill="#d7c59f" opacity="0.86"/>
  <path d="M192 620 C430 526 654 490 858 452 C1050 416 1238 336 1430 244" fill="none" stroke="#c9a96e" stroke-width="18" stroke-linecap="round"/>
  <path d="M192 620 C430 526 654 490 858 452 C1050 416 1238 336 1430 244" fill="none" stroke="#fff8e8" stroke-width="4" stroke-dasharray="24 22" stroke-linecap="round"/>
  <g filter="url(#shadow)">
    <path d="M760 430 L850 392 L944 428 L850 466 Z" fill="#151814"/>
    <rect x="804" y="362" width="92" height="44" rx="8" fill="#151814"/>
    <rect x="824" y="326" width="52" height="44" rx="6" fill="#315f48"/>
  </g>
  <g filter="url(#shadow)">
    <rect x="92" y="106" width="590" height="252" rx="30" fill="#fffdf8" opacity="0.97"/>
    <text x="142" y="174" font-family="Inter, Arial, sans-serif" font-size="26" font-weight="850" letter-spacing="4" fill="#315f48">THE ANALYST DOSSIER</text>
    <text x="142" y="252" font-family="Georgia, serif" font-size="66" font-weight="800" fill="#181824">Sri Lanka and</text>
    <text x="142" y="322" font-family="Georgia, serif" font-size="66" font-weight="800" fill="#181824">the Hormuz Crisis</text>
  </g>
  <g filter="url(#shadow)" font-family="Inter, Arial, sans-serif" font-weight="850">
    <rect x="1026" y="112" width="252" height="76" rx="38" fill="#fffdf8"/>
    <circle cx="1064" cy="150" r="14" fill="#c9a96e"/>
    <text x="1094" y="159" font-size="25" fill="#181824">oil route</text>
    <rect x="1160" y="612" width="290" height="76" rx="38" fill="#fffdf8"/>
    <circle cx="1198" cy="650" r="14" fill="#a9683f"/>
    <text x="1228" y="659" font-size="25" fill="#181824">price shock</text>
    <rect x="220" y="676" width="352" height="76" rx="38" fill="#fffdf8"/>
    <circle cx="258" cy="714" r="14" fill="#315f48"/>
    <text x="288" y="723" font-size="25" fill="#181824">Sri Lanka exposure</text>
  </g>
  <g fill="none" stroke-linecap="round">
    <path d="M1026 150 C960 230 910 314 872 394" stroke="#c9a96e" stroke-width="7"/>
    <path d="M1160 648 C1038 584 948 522 880 460" stroke="#a9683f" stroke-width="7"/>
    <path d="M570 714 C642 618 728 536 822 464" stroke="#315f48" stroke-width="7"/>
  </g>
  <g filter="url(#shadow)">
    <rect x="594" y="640" width="390" height="90" rx="45" fill="#151814"/>
    <text x="640" y="696" font-family="Inter, Arial, sans-serif" font-size="28" font-weight="850" fill="#e3cf9a">What you need to know</text>
  </g>
</svg>
