<svg xmlns="http://www.w3.org/2000/svg" viewBox="0 0 1600 900" role="img" aria-labelledby="title desc">
  <title id="title">Sri Lanka cricket stadium thumbnail</title>
  <desc id="desc">A restrained cricket corruption thumbnail using a stadium, pitch, scoreboard, and institutional-risk labels.</desc>
  <defs>
    <filter id="shadow" x="-20%" y="-20%" width="140%" height="140%">
      <feDropShadow dx="0" dy="18" stdDeviation="18" flood-color="#102018" flood-opacity="0.25"/>
    </filter>
  </defs>
  <rect width="1600" height="900" fill="#eff2e8"/>
  <rect x="0" y="0" width="1600" height="355" fill="#172018"/>
  <path d="M0 355 C360 292 1220 292 1600 355 L1600 900 L0 900 Z" fill="#315f48"/>
  <ellipse cx="800" cy="650" rx="620" ry="190" fill="#d7c28d"/>
  <ellipse cx="800" cy="650" rx="430" ry="120" fill="#f1e2b1"/>
  <rect x="742" y="500" width="116" height="306" rx="54" fill="#c9a96e"/>
  <path d="M800 506 L800 806" stroke="#fff8e8" stroke-width="6" stroke-dasharray="18 18"/>
  <g opacity="0.34" stroke="#f4efe3" stroke-width="10" stroke-linecap="round">
    <path d="M132 146 L132 306M220 118 L220 306M1368 146 L1368 306M1280 118 L1280 306"/>
  </g>
  <g filter="url(#shadow)">
    <rect x="476" y="88" width="648" height="194" rx="20" fill="#101511" stroke="#d6c99c" stroke-width="4"/>
    <text x="524" y="150" font-family="Inter, Arial, sans-serif" font-size="24" font-weight="850" letter-spacing="4" fill="#c9a96e">THE ANALYST DOSSIER</text>
    <text x="524" y="214" font-family="Georgia, serif" font-size="58" font-weight="800" fill="#fffdf7">The Death of</text>
    <text x="524" y="270" font-family="Georgia, serif" font-size="58" font-weight="800" fill="#fffdf7">Sri Lankan Cricket</text>
  </g>
  <g filter="url(#shadow)" font-family="Inter, Arial, sans-serif" font-weight="850">
    <rect x="138" y="480" width="360" height="78" rx="39" fill="#fffdf8"/>
    <circle cx="178" cy="519" r="14" fill="#315f48"/>
    <text x="208" y="528" font-size="25" fill="#181824">selection politics</text>
    <rect x="1076" y="478" width="282" height="78" rx="39" fill="#fffdf8"/>
    <circle cx="1116" cy="517" r="14" fill="#c9a96e"/>
    <text x="1146" y="526" font-size="25" fill="#181824">money route</text>
    <rect x="552" y="752" width="466" height="78" rx="39" fill="#fffdf8"/>
    <circle cx="592" cy="791" r="14" fill="#a9683f"/>
    <text x="622" y="800" font-size="25" fill="#181824">institutional collapse</text>
  </g>
  <g fill="none" stroke-linecap="round">
    <path d="M494 518 C604 548 686 574 742 636" stroke="#315f48" stroke-width="7"/>
    <path d="M1076 516 C964 548 900 580 858 636" stroke="#c9a96e" stroke-width="7"/>
    <path d="M800 752 C798 720 798 690 800 650" stroke="#a9683f" stroke-width="7"/>
  </g>
</svg>
